<svg width="18" height="20" viewBox="0 0 18 20" fill="none" xmlns="http://www.w3.org/2000/svg">
<mask id="mask0_202_618" style="mask-type:alpha" maskUnits="userSpaceOnUse" x="-3" y="-2" width="24" height="24">
<rect x="-2.86548" y="-2" width="22.9231" height="24" fill="#D9D9D9"/>
</mask>
<g mask="url(#mask0_202_618)">
<path d="M1.91026 20C1.38494 20 0.93523 19.8042 0.561138 19.4125C0.187046 19.0208 0 18.55 0 18V4C0 3.45 0.187046 2.97917 0.561138 2.5875C0.93523 2.19583 1.38494 2 1.91026 2H2.86538V0H4.77564V2H12.4167V0H14.3269V2H15.2821C15.8074 2 16.2571 2.19583 16.6312 2.5875C17.0053 2.97917 17.1923 3.45 17.1923 4V18C17.1923 18.55 17.0053 19.0208 16.6312 19.4125C16.2571 19.8042 15.8074 20 15.2821 20H1.91026ZM1.91026 18H15.2821V8H1.91026V18ZM1.91026 6H15.2821V4H1.91026V6ZM8.59615 12C8.32553 12 8.09869 11.9042 7.91563 11.7125C7.73256 11.5208 7.64103 11.2833 7.64103 11C7.64103 10.7167 7.73256 10.4792 7.91563 10.2875C8.09869 10.0958 8.32553 10 8.59615 10C8.86677 10 9.09362 10.0958 9.27668 10.2875C9.45975 10.4792 9.55128 10.7167 9.55128 11C9.55128 11.2833 9.45975 11.5208 9.27668 11.7125C9.09362 11.9042 8.86677 12 8.59615 12ZM4.77564 12C4.50502 12 4.27818 11.9042 4.09511 11.7125C3.91205 11.5208 3.82051 11.2833 3.82051 11C3.82051 10.7167 3.91205 10.4792 4.09511 10.2875C4.27818 10.0958 4.50502 10 4.77564 10C5.04626 10 5.2731 10.0958 5.45617 10.2875C5.63924 10.4792 5.73077 10.7167 5.73077 11C5.73077 11.2833 5.63924 11.5208 5.45617 11.7125C5.2731 11.9042 5.04626 12 4.77564 12ZM12.4167 12C12.146 12 11.9192 11.9042 11.7361 11.7125C11.5531 11.5208 11.4615 11.2833 11.4615 11C11.4615 10.7167 11.5531 10.4792 11.7361 10.2875C11.9192 10.0958 12.146 10 12.4167 10C12.6873 10 12.9141 10.0958 13.0972 10.2875C13.2803 10.4792 13.3718 10.7167 13.3718 11C13.3718 11.2833 13.2803 11.5208 13.0972 11.7125C12.9141 11.9042 12.6873 12 12.4167 12ZM8.59615 16C8.32553 16 8.09869 15.9042 7.91563 15.7125C7.73256 15.5208 7.64103 15.2833 7.64103 15C7.64103 14.7167 7.73256 14.4792 7.91563 14.2875C8.09869 14.0958 8.32553 14 8.59615 14C8.86677 14 9.09362 14.0958 9.27668 14.2875C9.45975 14.4792 9.55128 14.7167 9.55128 15C9.55128 15.2833 9.45975 15.5208 9.27668 15.7125C9.09362 15.9042 8.86677 16 8.59615 16ZM4.77564 16C4.50502 16 4.27818 15.9042 4.09511 15.7125C3.91205 15.5208 3.82051 15.2833 3.82051 15C3.82051 14.7167 3.91205 14.4792 4.09511 14.2875C4.27818 14.0958 4.50502 14 4.77564 14C5.04626 14 5.2731 14.0958 5.45617 14.2875C5.63924 14.4792 5.73077 14.7167 5.73077 15C5.73077 15.2833 5.63924 15.5208 5.45617 15.7125C5.2731 15.9042 5.04626 16 4.77564 16ZM12.4167 16C12.146 16 11.9192 15.9042 11.7361 15.7125C11.5531 15.5208 11.4615 15.2833 11.4615 15C11.4615 14.7167 11.5531 14.4792 11.7361 14.2875C11.9192 14.0958 12.146 14 12.4167 14C12.6873 14 12.9141 14.0958 13.0972 14.2875C13.2803 14.4792 13.3718 14.7167 13.3718 15C13.3718 15.2833 13.2803 15.5208 13.0972 15.7125C12.9141 15.9042 12.6873 16 12.4167 16Z" fill="#1C1B1F"/>
</g>
</svg>
