<svg width="13" height="14" viewBox="0 0 13 14" fill="none" xmlns="http://www.w3.org/2000/svg">
<mask id="mask0_12_363" style="mask-type:alpha" maskUnits="userSpaceOnUse" x="-3" y="-2" width="18" height="18">
<rect x="-2.16143" y="-1.4" width="16.8" height="16.8" fill="#D9D9D9"/>
</mask>
<g mask="url(#mask0_12_363)">
<path d="M1.4039 14C1.01783 14 0.687326 13.8629 0.412396 13.5888C0.137465 13.3146 0 12.985 0 12.6V2.8C0 2.415 0.137465 2.08542 0.412396 1.81125C0.687326 1.53708 1.01783 1.4 1.4039 1.4H2.10585V0H3.50975V1.4H9.12535V0H10.5293V1.4H11.2312C11.6173 1.4 11.9478 1.53708 12.2227 1.81125C12.4976 2.08542 12.6351 2.415 12.6351 2.8V12.6C12.6351 12.985 12.4976 13.3146 12.2227 13.5888C11.9478 13.8629 11.6173 14 11.2312 14H1.4039ZM1.4039 12.6H11.2312V5.6H1.4039V12.6ZM1.4039 4.2H11.2312V2.8H1.4039V4.2ZM6.31755 8.4C6.11867 8.4 5.95195 8.33292 5.81741 8.19875C5.68287 8.06459 5.6156 7.89834 5.6156 7.7C5.6156 7.50167 5.68287 7.33542 5.81741 7.20125C5.95195 7.06709 6.11867 7 6.31755 7C6.51644 7 6.68315 7.06709 6.81769 7.20125C6.95223 7.33542 7.0195 7.50167 7.0195 7.7C7.0195 7.89834 6.95223 8.06459 6.81769 8.19875C6.68315 8.33292 6.51644 8.4 6.31755 8.4ZM3.50975 8.4C3.31086 8.4 3.14415 8.33292 3.00961 8.19875C2.87507 8.06459 2.8078 7.89834 2.8078 7.7C2.8078 7.50167 2.87507 7.33542 3.00961 7.20125C3.14415 7.06709 3.31086 7 3.50975 7C3.70864 7 3.87535 7.06709 4.00989 7.20125C4.14443 7.33542 4.2117 7.50167 4.2117 7.7C4.2117 7.89834 4.14443 8.06459 4.00989 8.19875C3.87535 8.33292 3.70864 8.4 3.50975 8.4ZM9.12535 8.4C8.92647 8.4 8.75975 8.33292 8.62521 8.19875C8.49067 8.06459 8.4234 7.89834 8.4234 7.7C8.4234 7.50167 8.49067 7.33542 8.62521 7.20125C8.75975 7.06709 8.92647 7 9.12535 7C9.32424 7 9.49095 7.06709 9.62549 7.20125C9.76003 7.33542 9.8273 7.50167 9.8273 7.7C9.8273 7.89834 9.76003 8.06459 9.62549 8.19875C9.49095 8.33292 9.32424 8.4 9.12535 8.4ZM6.31755 11.2C6.11867 11.2 5.95195 11.1329 5.81741 10.9988C5.68287 10.8646 5.6156 10.6983 5.6156 10.5C5.6156 10.3017 5.68287 10.1354 5.81741 10.0013C5.95195 9.86709 6.11867 9.8 6.31755 9.8C6.51644 9.8 6.68315 9.86709 6.81769 10.0013C6.95223 10.1354 7.0195 10.3017 7.0195 10.5C7.0195 10.6983 6.95223 10.8646 6.81769 10.9988C6.68315 11.1329 6.51644 11.2 6.31755 11.2ZM3.50975 11.2C3.31086 11.2 3.14415 11.1329 3.00961 10.9988C2.87507 10.8646 2.8078 10.6983 2.8078 10.5C2.8078 10.3017 2.87507 10.1354 3.00961 10.0013C3.14415 9.86709 3.31086 9.8 3.50975 9.8C3.70864 9.8 3.87535 9.86709 4.00989 10.0013C4.14443 10.1354 4.2117 10.3017 4.2117 10.5C4.2117 10.6983 4.14443 10.8646 4.00989 10.9988C3.87535 11.1329 3.70864 11.2 3.50975 11.2ZM9.12535 11.2C8.92647 11.2 8.75975 11.1329 8.62521 10.9988C8.49067 10.8646 8.4234 10.6983 8.4234 10.5C8.4234 10.3017 8.49067 10.1354 8.62521 10.0013C8.75975 9.86709 8.92647 9.8 9.12535 9.8C9.32424 9.8 9.49095 9.86709 9.62549 10.0013C9.76003 10.1354 9.8273 10.3017 9.8273 10.5C9.8273 10.6983 9.76003 10.8646 9.62549 10.9988C9.49095 11.1329 9.32424 11.2 9.12535 11.2Z" fill="black" fill-opacity="0.7"/>
</g>
</svg>
