<svg width="278" height="48" viewBox="0 0 278 48" fill="none" xmlns="http://www.w3.org/2000/svg">
<rect width="278" height="48" fill="white"/>
<path d="M22.352 30.192C21.616 30.192 20.9333 30.0533 20.304 29.776C19.6747 29.488 19.1307 29.1093 18.672 28.64L19.472 27.712C19.8453 28.1067 20.2827 28.4267 20.784 28.672C21.296 28.9067 21.824 29.024 22.368 29.024C23.0613 29.024 23.6 28.8693 23.984 28.56C24.368 28.24 24.56 27.824 24.56 27.312C24.56 26.9493 24.48 26.6613 24.32 26.448C24.1707 26.2347 23.9627 26.0533 23.696 25.904C23.44 25.7547 23.1467 25.6053 22.816 25.456L21.312 24.8C20.9813 24.6613 20.6507 24.48 20.32 24.256C20 24.032 19.728 23.744 19.504 23.392C19.2907 23.04 19.184 22.608 19.184 22.096C19.184 21.5627 19.3227 21.088 19.6 20.672C19.888 20.2453 20.2827 19.9147 20.784 19.68C21.2853 19.4347 21.8507 19.312 22.48 19.312C23.1093 19.312 23.6907 19.4347 24.224 19.68C24.7573 19.9147 25.2107 20.224 25.584 20.608L24.864 21.472C24.544 21.1627 24.1867 20.9227 23.792 20.752C23.408 20.5707 22.9707 20.48 22.48 20.48C21.8933 20.48 21.4187 20.6187 21.056 20.896C20.704 21.1733 20.528 21.5467 20.528 22.016C20.528 22.3467 20.6133 22.624 20.784 22.848C20.9653 23.0613 21.1893 23.2373 21.456 23.376C21.7227 23.5147 21.9947 23.6427 22.272 23.76L23.76 24.4C24.1653 24.5707 24.528 24.7787 24.848 25.024C25.1787 25.2587 25.44 25.552 25.632 25.904C25.824 26.2453 25.92 26.6773 25.92 27.2C25.92 27.7547 25.776 28.2613 25.488 28.72C25.2 29.168 24.7893 29.5253 24.256 29.792C23.7227 30.0587 23.088 30.192 22.352 30.192ZM29.6509 30.192C29.0002 30.192 28.4562 30 28.0189 29.616C27.5922 29.2213 27.3789 28.6773 27.3789 27.984C27.3789 27.1307 27.7575 26.48 28.5149 26.032C29.2829 25.5733 30.4935 25.2533 32.1469 25.072C32.1469 24.7413 32.0989 24.4267 32.0029 24.128C31.9175 23.8293 31.7575 23.5893 31.5229 23.408C31.2989 23.216 30.9735 23.12 30.5469 23.12C30.0989 23.12 29.6775 23.2053 29.2829 23.376C28.8882 23.5467 28.5362 23.7387 28.2269 23.952L27.7149 23.04C28.0775 22.8053 28.5202 22.5813 29.0429 22.368C29.5762 22.144 30.1522 22.032 30.7709 22.032C31.7202 22.032 32.4082 22.3253 32.8349 22.912C33.2615 23.488 33.4749 24.2613 33.4749 25.232V30H32.3869L32.2749 29.072H32.2269C31.8642 29.3707 31.4642 29.632 31.0269 29.856C30.6002 30.08 30.1415 30.192 29.6509 30.192ZM30.0349 29.136C30.4082 29.136 30.7602 29.0453 31.0909 28.864C31.4215 28.6827 31.7735 28.4267 32.1469 28.096V25.936C30.8562 26.096 29.9495 26.336 29.4269 26.656C28.9149 26.976 28.6589 27.3867 28.6589 27.888C28.6589 28.3253 28.7922 28.6453 29.0589 28.848C29.3255 29.04 29.6509 29.136 30.0349 29.136ZM35.9214 30V22.224H37.0094L37.1214 23.632H37.1694C37.436 23.1413 37.7614 22.752 38.1454 22.464C38.5294 22.176 38.94 22.032 39.3774 22.032C39.6867 22.032 39.964 22.0853 40.2094 22.192L39.9534 23.344C39.8254 23.3013 39.708 23.2693 39.6014 23.248C39.4947 23.2267 39.3614 23.216 39.2014 23.216C38.8707 23.216 38.524 23.3493 38.1614 23.616C37.8094 23.8827 37.5 24.3467 37.2334 25.008V30H35.9214ZM42.8696 30.192C42.219 30.192 41.675 30 41.2376 29.616C40.811 29.2213 40.5976 28.6773 40.5976 27.984C40.5976 27.1307 40.9763 26.48 41.7336 26.032C42.5016 25.5733 43.7123 25.2533 45.3656 25.072C45.3656 24.7413 45.3176 24.4267 45.2216 24.128C45.1363 23.8293 44.9763 23.5893 44.7416 23.408C44.5176 23.216 44.1923 23.12 43.7656 23.12C43.3176 23.12 42.8963 23.2053 42.5016 23.376C42.107 23.5467 41.755 23.7387 41.4456 23.952L40.9336 23.04C41.2963 22.8053 41.739 22.5813 42.2616 22.368C42.795 22.144 43.371 22.032 43.9896 22.032C44.939 22.032 45.627 22.3253 46.0536 22.912C46.4803 23.488 46.6936 24.2613 46.6936 25.232V30H45.6056L45.4936 29.072H45.4456C45.083 29.3707 44.683 29.632 44.2456 29.856C43.819 30.08 43.3603 30.192 42.8696 30.192ZM43.2536 29.136C43.627 29.136 43.979 29.0453 44.3096 28.864C44.6403 28.6827 44.9923 28.4267 45.3656 28.096V25.936C44.075 26.096 43.1683 26.336 42.6456 26.656C42.1336 26.976 41.8776 27.3867 41.8776 27.888C41.8776 28.3253 42.011 28.6453 42.2776 28.848C42.5443 29.04 42.8696 29.136 43.2536 29.136ZM49.1401 30V22.224H50.4521V30H49.1401ZM49.8121 20.624C49.5561 20.624 49.3428 20.5493 49.1721 20.4C49.0121 20.24 48.9321 20.0267 48.9321 19.76C48.9321 19.504 49.0121 19.296 49.1721 19.136C49.3428 18.976 49.5561 18.896 49.8121 18.896C50.0681 18.896 50.2761 18.976 50.4361 19.136C50.6068 19.296 50.6921 19.504 50.6921 19.76C50.6921 20.0267 50.6068 20.24 50.4361 20.4C50.2761 20.5493 50.0681 20.624 49.8121 20.624ZM58.2168 24.128L57.7208 25.728H60.8728L60.3768 24.128C60.1848 23.5413 60.0034 22.96 59.8328 22.384C59.6621 21.7973 59.4914 21.2 59.3208 20.592H59.2568C59.0968 21.2 58.9314 21.7973 58.7608 22.384C58.5901 22.96 58.4088 23.5413 58.2168 24.128ZM55.0168 30L58.5688 19.504H60.0728L63.6248 30H62.2008L61.2088 26.8H57.3848L56.3768 30H55.0168ZM64.9839 30V18.608H66.2799V26.32H66.3279L69.6399 22.224H71.0959L68.4879 25.344L71.4479 30H70.0079L67.7359 26.256L66.2799 27.952V30H64.9839ZM72.9058 30V22.224H74.2178V30H72.9058ZM73.5778 20.624C73.3218 20.624 73.1084 20.5493 72.9378 20.4C72.7778 20.24 72.6978 20.0267 72.6978 19.76C72.6978 19.504 72.7778 19.296 72.9378 19.136C73.1084 18.976 73.3218 18.896 73.5778 18.896C73.8338 18.896 74.0418 18.976 74.2018 19.136C74.3724 19.296 74.4578 19.504 74.4578 19.76C74.4578 20.0267 74.3724 20.24 74.2018 20.4C74.0418 20.5493 73.8338 20.624 73.5778 20.624ZM78.2353 30.192C77.7446 30.192 77.3873 30.0427 77.1633 29.744C76.9499 29.4347 76.8433 28.9973 76.8433 28.432V18.608H78.1553V28.528C78.1553 28.7307 78.1926 28.88 78.2673 28.976C78.3419 29.0613 78.4273 29.104 78.5233 29.104C78.5659 29.104 78.6033 29.104 78.6353 29.104C78.6779 29.0933 78.7366 29.0827 78.8113 29.072L78.9873 30.064C78.9019 30.1067 78.8006 30.1387 78.6833 30.16C78.5659 30.1813 78.4166 30.192 78.2353 30.192Z" fill="black" fill-opacity="0.9"/>
<line y1="47.5" x2="278" y2="47.5" stroke="#E1E1E1"/>
</svg>
