<svg width="14" height="14" viewBox="0 0 14 14" fill="none" xmlns="http://www.w3.org/2000/svg">
<mask id="mask0_12_372" style="mask-type:alpha" maskUnits="userSpaceOnUse" x="-2" y="-2" width="18" height="18">
<rect x="-1.45543" y="-1.39611" width="16.7533" height="16.7533" fill="#D9D9D9"/>
</mask>
<g mask="url(#mask0_12_372)">
<path d="M2.695 10.5406C3.29 10.0869 3.955 9.72914 4.69 9.46737C5.425 9.2056 6.195 9.07471 7 9.07471C7.80499 9.07471 8.57499 9.2056 9.30999 9.46737C10.045 9.72914 10.71 10.0869 11.305 10.5406C11.7133 10.0636 12.0312 9.52263 12.2587 8.91765C12.4862 8.31267 12.6 7.66697 12.6 6.98055C12.6 5.43319 12.0546 4.11562 10.9637 3.02781C9.87291 1.94001 8.55166 1.39611 7 1.39611C5.44833 1.39611 4.12708 1.94001 3.03625 3.02781C1.94542 4.11562 1.4 5.43319 1.4 6.98055C1.4 7.66697 1.51375 8.31267 1.74125 8.91765C1.96875 9.52263 2.28667 10.0636 2.695 10.5406ZM7 7.67861C6.31166 7.67861 5.73125 7.44301 5.25875 6.97182C4.78625 6.50064 4.55 5.92183 4.55 5.23541C4.55 4.54899 4.78625 3.97019 5.25875 3.499C5.73125 3.02781 6.31166 2.79222 7 2.79222C7.68833 2.79222 8.26874 3.02781 8.74124 3.499C9.21374 3.97019 9.44999 4.54899 9.44999 5.23541C9.44999 5.92183 9.21374 6.50064 8.74124 6.97182C8.26874 7.44301 7.68833 7.67861 7 7.67861ZM7 13.9611C6.03166 13.9611 5.12166 13.7779 4.27 13.4114C3.41833 13.0449 2.6775 12.5475 2.0475 11.9193C1.4175 11.291 0.918749 10.5523 0.55125 9.70296C0.18375 8.85366 0 7.94619 0 6.98055C0 6.01491 0.18375 5.10744 0.55125 4.25814C0.918749 3.40884 1.4175 2.67006 2.0475 2.04181C2.6775 1.41356 3.41833 0.916197 4.27 0.549718C5.12166 0.183239 6.03166 0 7 0C7.96833 0 8.87833 0.183239 9.72999 0.549718C10.5817 0.916197 11.3225 1.41356 11.9525 2.04181C12.5825 2.67006 13.0812 3.40884 13.4487 4.25814C13.8162 5.10744 14 6.01491 14 6.98055C14 7.94619 13.8162 8.85366 13.4487 9.70296C13.0812 10.5523 12.5825 11.291 11.9525 11.9193C11.3225 12.5475 10.5817 13.0449 9.72999 13.4114C8.87833 13.7779 7.96833 13.9611 7 13.9611ZM7 12.565C7.61833 12.565 8.20166 12.4748 8.74999 12.2945C9.29833 12.1142 9.79999 11.8553 10.255 11.5179C9.79999 11.1805 9.29833 10.9217 8.74999 10.7413C8.20166 10.561 7.61833 10.4708 7 10.4708C6.38166 10.4708 5.79833 10.561 5.25 10.7413C4.70166 10.9217 4.2 11.1805 3.745 11.5179C4.2 11.8553 4.70166 12.1142 5.25 12.2945C5.79833 12.4748 6.38166 12.565 7 12.565ZM7 6.28249C7.30333 6.28249 7.55416 6.1836 7.75249 5.98582C7.95083 5.78804 8.04999 5.5379 8.04999 5.23541C8.04999 4.93292 7.95083 4.68279 7.75249 4.485C7.55416 4.28722 7.30333 4.18833 7 4.18833C6.69666 4.18833 6.44583 4.28722 6.2475 4.485C6.04916 4.68279 5.95 4.93292 5.95 5.23541C5.95 5.5379 6.04916 5.78804 6.2475 5.98582C6.44583 6.1836 6.69666 6.28249 7 6.28249Z" fill="black" fill-opacity="0.7"/>
</g>
</svg>
